<svg xmlns="http://www.w3.org/2000/svg" xmlns:xlink="http://www.w3.org/1999/xlink" width="994" height="683" viewBox="0 0 994 683"><g transform="translate(100.20,69.09)"><svg xmlns="http://www.w3.org/2000/svg" xmlns:xlink="http://www.w3.org/1999/xlink" version="1.1" viewBox="-9.59 -10 819.1800000000001 995.26" preserveAspectRatio="xMidYMid meet" width="794" height="545">
	<defs>
		

		

		
		

	</defs>
	<g>
		<path id="AS-WT" d="M102.2,913.65L101.93,909.82L100.11,906.55L95.64,907.35L86.16,907.17L81.77,908.04L70.14,915.06L72.44,917.12L79.64,920.84L90.83,928.5L92.7,930.64L100.03,924.65L107.99,913.76L105.64,913.1L102.2,913.65z" class="_mapPath_1shkr_3" style="stroke: rgb(255, 255, 255); stroke-width: 1; fill: rgb(147, 197, 253);"/>
		<path id="AS-UU2" d="M0.65,0L0.41,2.49L1.78,4.1L3.98,2.99L4.15,0.32L0.65,0z" class="_mapPath_1shkr_3" style="stroke: rgb(255, 255, 255); stroke-width: 1; fill: rgb(30, 58, 95);"/>
		<path id="AS-UU1" d="M799.29,975.26L799.59,971.88L798.76,971.56L796.15,972.66L799.29,975.26z" class="_mapPath_1shkr_3" style="stroke: rgb(255, 255, 255); stroke-width: 1; fill: rgb(30, 58, 95);"/>
		<path id="AS-MA" d="M450.08,894.16L449.02,890.04L443.6,887.95L431.97,887.67L426.21,888.73L422.08,891.76L424.23,892.99L425.73,895.15L426.77,898.02L427.5,901.39L430.31,901.62L432.57,901.3L434.18,900.01L435.14,897.54L437.84,898.87L440.24,898.98L442.45,897.95L444.62,895.61L448.17,897.08L450.08,894.16zM396.69,874.93L393.54,873.55L390.53,872.63L387.8,872.7L385.61,874.33L385.6,874.33L387.37,878L389.99,878.34L396.69,874.93z" class="_mapPath_1shkr_3" style="stroke: rgb(255, 255, 255); stroke-width: 1; fill: rgb(147, 197, 253);"/>
		<path id="AS-ET" d="M135.75,899.67L127.81,896.78L116.51,896.16L106.4,898.45L100.11,906.55L101.93,909.82L102.2,913.65L105.64,913.1L107.99,913.76L110.47,910.38L117.1,905.42L121.74,904.14L137.62,903.31L141.91,901.39L142.24,897.9L139.78,896.21L135.75,899.67z" class="_mapPath_1shkr_3" style="stroke: rgb(255, 255, 255); stroke-width: 1; fill: rgb(59, 130, 246);"/>
	</g>
</svg></g><defs><clipPath id="lg4ymkmeb1s"><rect x="21" y="21" width="160" height="125.375" rx="8" ry="8"/></clipPath></defs><g clip-path="url(#lg4ymkmeb1s)"><rect x="21" y="21" width="160" height="125.375" rx="8" ry="8" fill="rgba(255, 255, 255, 0.95)" stroke="rgba(24, 41, 77, 0.2)" stroke-width="1"/><text x="29" y="31" font-size="12" font-weight="600" fill="#18294D" font-family="system-ui, -apple-system, BlinkMacSystemFont, sans-serif" dominant-baseline="hanging">INTENSITY RATIO</text><rect x="29" y="49" width="12" height="12" fill="#93C5FD"/><text x="49" y="55" font-size="12" fill="#18294D" font-family="system-ui, -apple-system, BlinkMacSystemFont, sans-serif" dominant-baseline="middle">Low</text><rect x="29" y="69" width="12" height="12" fill="#3B82F6"/><text x="49" y="75" font-size="12" fill="#18294D" font-family="system-ui, -apple-system, BlinkMacSystemFont, sans-serif" dominant-baseline="middle">Medium</text><rect x="29" y="89" width="12" height="12" fill="#1E3A5F"/><text x="49" y="95" font-size="12" fill="#18294D" font-family="system-ui, -apple-system, BlinkMacSystemFont, sans-serif" dominant-baseline="middle">High</text><rect x="29" y="109" width="12" height="12" fill="#E5E7EB" stroke="#d1d5db" stroke-width="1"/><text x="49" y="115" font-size="12" fill="#18294D" font-family="system-ui, -apple-system, BlinkMacSystemFont, sans-serif" dominant-baseline="middle">No Data</text></g></svg>