<svg xmlns="http://www.w3.org/2000/svg" xmlns:xlink="http://www.w3.org/1999/xlink" width="994" height="683" viewBox="0 0 994 683"><g transform="translate(100.20,69.09)"><svg xmlns="http://www.w3.org/2000/svg" xmlns:xlink="http://www.w3.org/1999/xlink" version="1.1" viewBox="-9.45 -10 818.9000000000001 743.12" preserveAspectRatio="xMidYMid meet" width="794" height="545">
	<defs>
		

		

		
		

	</defs>
	<g>
		<path id="AI-00" d="M414.19,568.02L412.97,562.22L409.6,561.9L407.76,563.51L404.7,563.51L405.01,567.7L409.29,568.66L414.19,568.02zM396.44,560.29L388.49,557.71L385.43,557.06L379.61,555.77L376.24,556.42L380.22,558.67L384.51,562.22L390.02,562.54L396.44,560.29zM306.66,532.72L291.47,532.35L278.82,526.27L264.43,534.33L266.27,544L281.27,549.48L306.66,532.72zM0.55,0L1.91,14.11L8.89,2.05L0.55,0z" class="_mapPath_1shkr_3" style="stroke: rgb(255, 255, 255); stroke-width: 1; fill: rgb(147, 197, 253);"/>
		<path id="AI-WE" d="M442.47,723.12L464.18,715.91L486.78,698.9L486.47,657.97L468.12,664.63L455.85,674.56L414.95,722.71L442.47,723.12z" class="_mapPath_1shkr_3" style="stroke: rgb(255, 255, 255); stroke-width: 1; fill: rgb(147, 197, 253);"/>
		<path id="AI-TV" d="M605.05,612.22L584.33,594.93L573.82,610.49L565.98,619.06L606.86,626.8L611.41,617.53L605.05,612.22z" class="_mapPath_1shkr_3" style="stroke: rgb(255, 255, 255); stroke-width: 1; fill: rgb(30, 58, 95);"/>
		<path id="AI-TQ" d="M627.1,624.81L634.93,612.68L613.56,613.14L611.41,617.53L606.86,626.8L627.1,624.81z" class="_mapPath_1shkr_3" style="stroke: rgb(255, 255, 255); stroke-width: 1; fill: rgb(147, 197, 253);"/>
		<path id="AI-TF" d="M633.12,646.34L631.52,630.13L627.1,624.81L606.86,626.8L584.1,639.45L584.06,650.6L583.97,673.39L621.63,649.81L633.12,646.34z" class="_mapPath_1shkr_3" style="stroke: rgb(255, 255, 255); stroke-width: 1; fill: rgb(147, 197, 253);"/>
		<path id="AI-ST" d="M659.97,569.55L660.01,551.15L645.04,553.86L646.06,566.89L640.37,582.87L619.51,583.53L605.05,612.22L611.41,617.53L613.56,613.14L634.93,612.68L644.8,586.19L663.77,587.53L689.06,577.54L676.41,569.55L659.97,569.55z" class="_mapPath_1shkr_3" style="stroke: rgb(255, 255, 255); stroke-width: 1; fill: rgb(30, 58, 95);"/>
		<path id="AI-SO" d="M584.1,639.45L571.45,638.79L561.04,644.27L556.28,646.78L527.05,650.62L486.47,657.97L486.78,698.9L500.69,688.44L500.64,676.73L518.34,676.73L519.61,669.41L542.37,668.74L552.48,660.09L566.12,651.19L584.1,639.45z" class="_mapPath_1shkr_3" style="stroke: rgb(255, 255, 255); stroke-width: 1; fill: rgb(147, 197, 253);"/>
		<path id="AI-SH" d="M678.31,598.18L687.16,584.2L689.06,577.54L663.77,587.53L644.8,586.19L634.93,612.68L627.1,624.81L631.52,630.13L633.12,646.34L663.11,637.29L680.56,625.73L689.69,613.75L690.32,598.18L678.31,598.18z" class="_mapPath_1shkr_3" style="stroke: rgb(255, 255, 255); stroke-width: 1; fill: rgb(59, 130, 246);"/>
		<path id="AI-SG" d="M561.04,644.27L561.53,637.18L557.75,628.06L545.14,641.85L527.05,650.62L556.28,646.78L561.04,644.27z" class="_mapPath_1shkr_3" style="stroke: rgb(255, 255, 255); stroke-width: 1; fill: rgb(30, 58, 95);"/>
		<path id="AI-NS" d="M605.05,612.22L619.51,583.53L640.37,582.87L646.06,566.89L645.04,553.86L620.79,558.24L593.98,580.63L584.33,594.93L605.05,612.22z" class="_mapPath_1shkr_3" style="stroke: rgb(255, 255, 255); stroke-width: 1; fill: rgb(147, 197, 253);"/>
		<path id="AI-NH" d="M606.86,626.8L565.98,619.06L557.75,628.06L561.53,637.18L561.04,644.27L571.45,638.79L584.1,639.45L606.86,626.8z" class="_mapPath_1shkr_3" style="stroke: rgb(255, 255, 255); stroke-width: 1; fill: rgb(59, 130, 246);"/>
		<path id="AI-IH" d="M669.46,558.9L681.47,558.9L690.14,546.25L669.7,549.4L669.46,558.9z" class="_mapPath_1shkr_3" style="stroke: rgb(255, 255, 255); stroke-width: 1; fill: rgb(59, 130, 246);"/>
		<path id="AI-GH" d="M584.06,650.6L584.1,639.45L566.12,651.19L566.93,666.85L577.52,661.74L584.06,650.6z" class="_mapPath_1shkr_3" style="stroke: rgb(255, 255, 255); stroke-width: 1; fill: rgb(147, 197, 253);"/>
		<path id="AI-EE" d="M724.49,555.66L724.88,544.63L706.85,543.68L690.14,546.25L681.47,558.9L669.46,558.9L669.7,549.4L660.01,551.15L659.97,569.55L676.41,569.55L689.06,577.54L687.16,584.2L678.31,598.18L690.32,598.18L689.69,613.75L692.7,609.81L724.49,555.66zM765.02,537.07L768.85,531.53L789.41,525.49L799.45,521.46L786.54,513.4L764.54,508.87L759.76,517.43L747.81,521.97L751.16,533.55L744.94,541.6L750.2,547.14L765.02,537.07z" class="_mapPath_1shkr_3" style="stroke: rgb(255, 255, 255); stroke-width: 1; fill: rgb(59, 130, 246);"/>
		<path id="AI-BP" d="M583.97,673.39L584.06,650.6L577.52,661.74L566.93,666.85L566.12,651.19L552.48,660.09L542.37,668.74L519.61,669.41L518.34,676.73L500.64,676.73L500.69,688.44L508.18,696.46L518.91,704.21L523.43,711.29L583.97,673.39z" class="_mapPath_1shkr_3" style="stroke: rgb(255, 255, 255); stroke-width: 1; fill: rgb(30, 58, 95);"/>
	</g>
</svg></g><defs><clipPath id="lg59icf85qx"><rect x="21" y="21" width="160" height="125.375" rx="8" ry="8"/></clipPath></defs><g clip-path="url(#lg59icf85qx)"><rect x="21" y="21" width="160" height="125.375" rx="8" ry="8" fill="rgba(255, 255, 255, 0.95)" stroke="rgba(24, 41, 77, 0.2)" stroke-width="1"/><text x="29" y="31" font-size="12" font-weight="600" fill="#18294D" font-family="system-ui, -apple-system, BlinkMacSystemFont, sans-serif" dominant-baseline="hanging">INTENSITY RATIO</text><rect x="29" y="49" width="12" height="12" fill="#93C5FD"/><text x="49" y="55" font-size="12" fill="#18294D" font-family="system-ui, -apple-system, BlinkMacSystemFont, sans-serif" dominant-baseline="middle">Low</text><rect x="29" y="69" width="12" height="12" fill="#3B82F6"/><text x="49" y="75" font-size="12" fill="#18294D" font-family="system-ui, -apple-system, BlinkMacSystemFont, sans-serif" dominant-baseline="middle">Medium</text><rect x="29" y="89" width="12" height="12" fill="#1E3A5F"/><text x="49" y="95" font-size="12" fill="#18294D" font-family="system-ui, -apple-system, BlinkMacSystemFont, sans-serif" dominant-baseline="middle">High</text><rect x="29" y="109" width="12" height="12" fill="#E5E7EB" stroke="#d1d5db" stroke-width="1"/><text x="49" y="115" font-size="12" fill="#18294D" font-family="system-ui, -apple-system, BlinkMacSystemFont, sans-serif" dominant-baseline="middle">No Data</text></g></svg>